<mxfile host="app.diagrams.net" agent="Mozilla/5.0 (X11; Linux x86_64; rv:133.0) Gecko/20100101 Firefox/133.0" version="25.0.3">
  <diagram name="Page-1" id="Hz0QBaicGsHGaJ9bGWde">
    <mxGraphModel dx="893" dy="988" grid="1" gridSize="10" guides="1" tooltips="1" connect="1" arrows="1" fold="1" page="1" pageScale="1" pageWidth="850" pageHeight="1100" math="0" shadow="0">
      <root>
        <mxCell id="0" />
        <mxCell id="1" parent="0" />
        <mxCell id="rnc0SFduD-tNQZinWN4--11" style="edgeStyle=orthogonalEdgeStyle;rounded=0;orthogonalLoop=1;jettySize=auto;html=1;entryX=0;entryY=0.5;entryDx=0;entryDy=0;" edge="1" parent="1" source="rnc0SFduD-tNQZinWN4--1" target="rnc0SFduD-tNQZinWN4--4">
          <mxGeometry relative="1" as="geometry" />
        </mxCell>
        <mxCell id="rnc0SFduD-tNQZinWN4--15" style="edgeStyle=orthogonalEdgeStyle;rounded=0;orthogonalLoop=1;jettySize=auto;html=1;entryX=0;entryY=0.5;entryDx=0;entryDy=0;" edge="1" parent="1" source="rnc0SFduD-tNQZinWN4--1" target="rnc0SFduD-tNQZinWN4--6">
          <mxGeometry relative="1" as="geometry">
            <Array as="points">
              <mxPoint x="202" y="140" />
              <mxPoint x="202" y="260" />
            </Array>
          </mxGeometry>
        </mxCell>
        <mxCell id="rnc0SFduD-tNQZinWN4--1" value="pg1" style="rounded=0;whiteSpace=wrap;html=1;" vertex="1" parent="1">
          <mxGeometry x="42" y="120" width="80" height="40" as="geometry" />
        </mxCell>
        <mxCell id="rnc0SFduD-tNQZinWN4--12" style="edgeStyle=orthogonalEdgeStyle;rounded=0;orthogonalLoop=1;jettySize=auto;html=1;entryX=0;entryY=0.5;entryDx=0;entryDy=0;" edge="1" parent="1" source="rnc0SFduD-tNQZinWN4--2" target="rnc0SFduD-tNQZinWN4--4">
          <mxGeometry relative="1" as="geometry" />
        </mxCell>
        <mxCell id="rnc0SFduD-tNQZinWN4--16" style="edgeStyle=orthogonalEdgeStyle;rounded=0;orthogonalLoop=1;jettySize=auto;html=1;entryX=0;entryY=0.5;entryDx=0;entryDy=0;" edge="1" parent="1" source="rnc0SFduD-tNQZinWN4--2" target="rnc0SFduD-tNQZinWN4--6">
          <mxGeometry relative="1" as="geometry" />
        </mxCell>
        <mxCell id="rnc0SFduD-tNQZinWN4--2" value="pg2" style="rounded=0;whiteSpace=wrap;html=1;" vertex="1" parent="1">
          <mxGeometry x="42" y="200" width="80" height="40" as="geometry" />
        </mxCell>
        <mxCell id="rnc0SFduD-tNQZinWN4--13" style="edgeStyle=orthogonalEdgeStyle;rounded=0;orthogonalLoop=1;jettySize=auto;html=1;entryX=0;entryY=0.5;entryDx=0;entryDy=0;" edge="1" parent="1" source="rnc0SFduD-tNQZinWN4--3" target="rnc0SFduD-tNQZinWN4--4">
          <mxGeometry relative="1" as="geometry" />
        </mxCell>
        <mxCell id="rnc0SFduD-tNQZinWN4--17" style="edgeStyle=orthogonalEdgeStyle;rounded=0;orthogonalLoop=1;jettySize=auto;html=1;entryX=0;entryY=0.5;entryDx=0;entryDy=0;" edge="1" parent="1" source="rnc0SFduD-tNQZinWN4--3" target="rnc0SFduD-tNQZinWN4--6">
          <mxGeometry relative="1" as="geometry">
            <Array as="points">
              <mxPoint x="242" y="300" />
              <mxPoint x="242" y="260" />
            </Array>
          </mxGeometry>
        </mxCell>
        <mxCell id="rnc0SFduD-tNQZinWN4--3" value="pg3" style="rounded=0;whiteSpace=wrap;html=1;" vertex="1" parent="1">
          <mxGeometry x="42" y="280" width="80" height="40" as="geometry" />
        </mxCell>
        <mxCell id="rnc0SFduD-tNQZinWN4--18" style="edgeStyle=orthogonalEdgeStyle;rounded=0;orthogonalLoop=1;jettySize=auto;html=1;entryX=0.5;entryY=0;entryDx=0;entryDy=0;" edge="1" parent="1" source="rnc0SFduD-tNQZinWN4--4" target="rnc0SFduD-tNQZinWN4--6">
          <mxGeometry relative="1" as="geometry" />
        </mxCell>
        <mxCell id="rnc0SFduD-tNQZinWN4--4" value="pgcat" style="rounded=0;whiteSpace=wrap;html=1;" vertex="1" parent="1">
          <mxGeometry x="322" y="160" width="80" height="40" as="geometry" />
        </mxCell>
        <mxCell id="rnc0SFduD-tNQZinWN4--21" style="edgeStyle=orthogonalEdgeStyle;rounded=0;orthogonalLoop=1;jettySize=auto;html=1;entryX=0;entryY=0.5;entryDx=0;entryDy=0;" edge="1" parent="1" source="rnc0SFduD-tNQZinWN4--6" target="rnc0SFduD-tNQZinWN4--8">
          <mxGeometry relative="1" as="geometry" />
        </mxCell>
        <mxCell id="rnc0SFduD-tNQZinWN4--22" style="edgeStyle=orthogonalEdgeStyle;rounded=0;orthogonalLoop=1;jettySize=auto;html=1;entryX=0;entryY=0.5;entryDx=0;entryDy=0;" edge="1" parent="1" source="rnc0SFduD-tNQZinWN4--6" target="rnc0SFduD-tNQZinWN4--9">
          <mxGeometry relative="1" as="geometry" />
        </mxCell>
        <mxCell id="rnc0SFduD-tNQZinWN4--6" value="lab-db-setup" style="rounded=0;whiteSpace=wrap;html=1;" vertex="1" parent="1">
          <mxGeometry x="362" y="240" width="80" height="40" as="geometry" />
        </mxCell>
        <mxCell id="rnc0SFduD-tNQZinWN4--24" style="edgeStyle=orthogonalEdgeStyle;rounded=0;orthogonalLoop=1;jettySize=auto;html=1;entryX=0;entryY=0.5;entryDx=0;entryDy=0;" edge="1" parent="1" source="rnc0SFduD-tNQZinWN4--8" target="rnc0SFduD-tNQZinWN4--10">
          <mxGeometry relative="1" as="geometry" />
        </mxCell>
        <mxCell id="rnc0SFduD-tNQZinWN4--8" value="lab-service-1" style="rounded=0;whiteSpace=wrap;html=1;" vertex="1" parent="1">
          <mxGeometry x="602" y="160" width="80" height="40" as="geometry" />
        </mxCell>
        <mxCell id="rnc0SFduD-tNQZinWN4--25" style="edgeStyle=orthogonalEdgeStyle;rounded=0;orthogonalLoop=1;jettySize=auto;html=1;entryX=0;entryY=0.5;entryDx=0;entryDy=0;" edge="1" parent="1" source="rnc0SFduD-tNQZinWN4--9" target="rnc0SFduD-tNQZinWN4--10">
          <mxGeometry relative="1" as="geometry" />
        </mxCell>
        <mxCell id="rnc0SFduD-tNQZinWN4--9" value="lab-service-2" style="rounded=0;whiteSpace=wrap;html=1;" vertex="1" parent="1">
          <mxGeometry x="602" y="280" width="80" height="40" as="geometry" />
        </mxCell>
        <mxCell id="rnc0SFduD-tNQZinWN4--10" value="nginx" style="rounded=0;whiteSpace=wrap;html=1;" vertex="1" parent="1">
          <mxGeometry x="722" y="200" width="80" height="40" as="geometry" />
        </mxCell>
        <mxCell id="rnc0SFduD-tNQZinWN4--14" value="service_healthy" style="text;html=1;align=center;verticalAlign=middle;whiteSpace=wrap;rounded=0;" vertex="1" parent="1">
          <mxGeometry x="242" y="150" width="60" height="30" as="geometry" />
        </mxCell>
        <mxCell id="rnc0SFduD-tNQZinWN4--19" value="service_healthy" style="text;html=1;align=center;verticalAlign=middle;whiteSpace=wrap;rounded=0;" vertex="1" parent="1">
          <mxGeometry x="272" y="230" width="60" height="30" as="geometry" />
        </mxCell>
        <mxCell id="rnc0SFduD-tNQZinWN4--20" value="service_started" style="text;html=1;align=center;verticalAlign=middle;whiteSpace=wrap;rounded=0;" vertex="1" parent="1">
          <mxGeometry x="422" y="205" width="60" height="30" as="geometry" />
        </mxCell>
        <mxCell id="rnc0SFduD-tNQZinWN4--23" value="service_completed_successfully" style="text;html=1;align=center;verticalAlign=middle;whiteSpace=wrap;rounded=0;" vertex="1" parent="1">
          <mxGeometry x="482" y="150" width="60" height="30" as="geometry" />
        </mxCell>
        <mxCell id="rnc0SFduD-tNQZinWN4--26" value="service_completed_successfully" style="text;html=1;align=center;verticalAlign=middle;whiteSpace=wrap;rounded=0;" vertex="1" parent="1">
          <mxGeometry x="482" y="300" width="60" height="30" as="geometry" />
        </mxCell>
        <mxCell id="rnc0SFduD-tNQZinWN4--27" value="" style="endArrow=classic;html=1;rounded=0;" edge="1" parent="1">
          <mxGeometry width="50" height="50" relative="1" as="geometry">
            <mxPoint x="40" y="362" as="sourcePoint" />
            <mxPoint x="800" y="362" as="targetPoint" />
          </mxGeometry>
        </mxCell>
        <mxCell id="rnc0SFduD-tNQZinWN4--28" value="time" style="text;html=1;align=center;verticalAlign=middle;whiteSpace=wrap;rounded=0;" vertex="1" parent="1">
          <mxGeometry x="732" y="322" width="60" height="30" as="geometry" />
        </mxCell>
      </root>
    </mxGraphModel>
  </diagram>
</mxfile>
